<svg xmlns="http://www.w3.org/2000/svg" viewBox="0 0 898 824" xmlns:c2pa="http://c2pa.org/manifest"><metadata><c2pa:manifest>AAAWgmp1bWIAAAAeanVtZGMycGEAEQAQgAAAqgA4m3EDYzJwYQAAABZcanVtYgAAAEdqdW1kYzJtYQARABCAAACqADibcQN1cm46YzJwYTowZDhlNzE1OS0yNjhlLTRiZDYtODQzMS00M2U0YjFiMjE5NDkAAAADl2p1bWIAAAApanVtZGMyYXMAEQAQgAAAqgA4m3EDYzJwYS5hc3NlcnRpb25zAAAAALxqdW1iAAAARGp1bWRjYm9yABEAEIAAAKoAOJtxE2MycGEuaW5ncmVkaWVudC52MwAAAAAYYzJzaIcHWDJSerSU5O90R/YyuNIAAABwY2JvcqNpZGM6Zm9ybWF0bWltYWdlL3N2Zyt4bWxqaW5zdGFuY2VJRHgseG1wOmlpZDo5ZTY0MTA4My1kZmE5LTQwOTgtODgyMy03OTVmZTRkMjkyMTZscmVsYXRpb25zaGlwaHBhcmVudE9mAAAB4mp1bWIAAABBanVtZGNib3IAEQAQgAAAqgA4m3ETYzJwYS5hY3Rpb25zLnYyAAAAABhjMnNohh6R3WhzwuluglGvSqyhlwAAAZljYm9yomdhY3Rpb25zgqJmYWN0aW9ua2MycGEub3BlbmVkanBhcmFtZXRlcnOha2luZ3JlZGllbnRzgaJjdXJseC1zZWxmI2p1bWJmPWMycGEuYXNzZXJ0aW9ucy9jMnBhLmluZ3JlZGllbnQudjNkaGFzaFggS9GhmzcRVR9Q0IoggvBgozMQA190O7lihQXJxBzg12akZmFjdGlvbngdY29tLmFudGhyb3BpYy5jbGF1ZGUucHJvdmlkZWRqcGFyYW1ldGVyc6F4H2NvbS5hbnRocm9waWMub3JpZ2luLWNvbmZpZGVuY2VndW5rbm93bmtkZXNjcmlwdGlvbnhmQ2xhdWRlIHByb3ZpZGVkIHRoaXMgZmlsZSBhdCB0aGUgcmVxdWVzdCBvZiBhIHVzZXIgYW5kIG1heSBoYXZlIGNyZWF0ZWQgb3IgbW9kaWZpZWQgdGhlIGZpbGUgY29udGVudHMubXNvZnR3YXJlQWdlbnShZG5hbWVmQ2xhdWRlcmFsbEFjdGlvbnNJbmNsdWRlZPUAAADIanVtYgAAAEBqdW1kY2JvcgARABCAAACqADibcRNjMnBhLmhhc2guZGF0YQAAAAAYYzJzaAmWgptVsCgKdUdysiwcuE8AAACAY2JvcqVjYWxnZnNoYTI1NmNwYWRNAAAAAAAAAAAAAAAAAGRoYXNoWCAsPxMg7O/EkolmRI8aKRtdfOA86lX2w1EotZqDRnSlXWRuYW1lbmp1bWJmIG1hbmlmZXN0amV4Y2x1c2lvbnOBomVzdGFydBh9Zmxlbmd0aBkeBAAAAj5qdW1iAAAAJ2p1bWRjMmNsABEAEIAAAKoAOJtxA2MycGEuY2xhaW0udjIAAAACD2Nib3KlY2FsZ2ZzaGEyNTZpc2lnbmF0dXJleE1zZWxmI2p1bWJmPS9jMnBhL3VybjpjMnBhOjBkOGU3MTU5LTI2OGUtNGJkNi04NDMxLTQzZTRiMWIyMTk0OS9jMnBhLnNpZ25hdHVyZWppbnN0YW5jZUlEeCx4bXA6aWlkOjg0OWU1NWQzLTJiM2ItNGZjZi1iZmZkLTE5NGU3YjE1NTAwMXJjcmVhdGVkX2Fzc2VydGlvbnODomN1cmx4LXNlbGYjanVtYmY9YzJwYS5hc3NlcnRpb25zL2MycGEuaW5ncmVkaWVudC52M2RoYXNoWCBL0aGbNxFVH1DQiiCC8GCjMxADX3Q7uWKFBcnEHODXZqJjdXJseCpzZWxmI2p1bWJmPWMycGEuYXNzZXJ0aW9ucy9jMnBhLmFjdGlvbnMudjJkaGFzaFgg7YWJfDQWdtF+9Fm1jw3KQfNyGg3UByZTkvyeYHGzO7yiY3VybHgpc2VsZiNqdW1iZj1jMnBhLmFzc2VydGlvbnMvYzJwYS5oYXNoLmRhdGFkaGFzaFggG7FflbF8Nd/p9jNhGNssoz4pJvB0om9SSD1yGnSj/6N0Y2xhaW1fZ2VuZXJhdG9yX2luZm+jZG5hbWVvQW50aHJvcGljIEZpbGVzZ3ZlcnNpb25lMS4wLjBrc3BlY1ZlcnNpb25lMi40LjAAABA4anVtYgAAAChqdW1kYzJjcwARABCAAACqADibcQNjMnBhLnNpZ25hdHVyZQAAABAIY2JvctKEWQISogEmGCFZAgowggIGMIIBjaADAgECAhRA5aAK7sI50L64g/oGQgU9Z1UTADAKBggqhkjOPQQDAzBJMRcwFQYDVQQKEw5BbnRocm9waWMsIFBCQzEuMCwGA1UEAxMlQW50aHJvcGljIENvbnRlbnQgQ3JlZGVudGlhbHMgUm9vdCBDQTAeFw0yNjA4MDcxODQzNTZaFw0yODA4MDYxOTQzNTZaMEQxFzAVBgNVBAoTDkFudGhyb3BpYywgUEJDMSkwJwYDVQQDEyBBbnRocm9waWMgQ2xhdWRlIENvbnRlbnQgU2lnbmluZzBZMBMGByqGSM49AgEGCCqGSM49AwEHA0IABJh6CmvLUBgFFNU0vUKlOVtE6djd17L5SuwX0LemFisBM3dkd/3cyjxFA3Qo5S46fX0/ihY0VZ7mfb9KF703t5OjWDBWMA4GA1UdDwEB/wQEAwIHgDAVBgNVHSUEDjAMBgorBgEEAYPoXgIBMAwGA1UdEwEB/wQCMAAwHwYDVR0jBBgwFoAUzlHiBIFOZFsj+OPEz5o+nMHXXMIwCgYIKoZIzj0EAwMDZwAwZAIwMXMdFJ4BetLLVY7ORuE9noqbbAZOZn/aArXyTwFAZfKrPzxF2vPoJNf1+UCdg1XGAjBwX1zd9WGqYkqmL5SFqw1QySjr1zJfpJM9+1rdDwSPLMOPOjKuiXjoU/pUUeG9RwmhY3BhZFkNngAAAAAAAAAAAAAAAAAAAAAAAAAAAAAAAAAAAAAAAAAAAAAAAAAAAAAAAAAAAAAAAAAAAAAAAAAAAAAAAAAAAAAAAAAAAAAAAAAAAAAAAAAAAAAAAAAAAAAAAAAAAAAAAAAAAAAAAAAAAAAAAAAAAAAAAAAAAAAAAAAAAAAAAAAAAAAAAAAAAAAAAAAAAAAAAAAAAAAAAAAAAAAAAAAAAAAAAAAAAAAAAAAAAAAAAAAAAAAAAAAAAAAAAAAAAAAAAAAAAAAAAAAAAAAAAAAAAAAAAAAAAAAAAAAAAAAAAAAAAAAAAAAAAAAAAAAAAAAAAAAAAAAAAAAAAAAAAAAAAAAAAAAAAAAAAAAAAAAAAAAAAAAAAAAAAAAAAAAAAAAAAAAAAAAAAAAAAAAAAAAAAAAAAAAAAAAAAAAAAAAAAAAAAAAAAAAAAAAAAAAAAAAAAAAAAAAAAAAAAAAAAAAAAAAAAAAAAAAAAAAAAAAAAAAAAAAAAAAAAAAAAAAAAAAAAAAAAAAAAAAAAAAAAAAAAAAAAAAAAAAAAAAAAAAAAAAAAAAAAAAAAAAAAAAAAAAAAAAAAAAAAAAAAAAAAAAAAAAAAAAAAAAAAAAAAAAAAAAAAAAAAAAAAAAAAAAAAAAAAAAAAAAAAAAAAAAAAAAAAAAAAAAAAAAAAAAAAAAAAAAAAAAAAAAAAAAAAAAAAAAAAAAAAAAAAAAAAAAAAAAAAAAAAAAAAAAAAAAAAAAAAAAAAAAAAAAAAAAAAAAAAAAAAAAAAAAAAAAAAAAAAAAAAAAAAAAAAAAAAAAAAAAAAAAAAAAAAAAAAAAAAAAAAAAAAAAAAAAAAAAAAAAAAAAAAAAAAAAAAAAAAAAAAAAAAAAAAAAAAAAAAAAAAAAAAAAAAAAAAAAAAAAAAAAAAAAAAAAAAAAAAAAAAAAAAAAAAAAAAAAAAAAAAAAAAAAAAAAAAAAAAAAAAAAAAAAAAAAAAAAAAAAAAAAAAAAAAAAAAAAAAAAAAAAAAAAAAAAAAAAAAAAAAAAAAAAAAAAAAAAAAAAAAAAAAAAAAAAAAAAAAAAAAAAAAAAAAAAAAAAAAAAAAAAAAAAAAAAAAAAAAAAAAAAAAAAAAAAAAAAAAAAAAAAAAAAAAAAAAAAAAAAAAAAAAAAAAAAAAAAAAAAAAAAAAAAAAAAAAAAAAAAAAAAAAAAAAAAAAAAAAAAAAAAAAAAAAAAAAAAAAAAAAAAAAAAAAAAAAAAAAAAAAAAAAAAAAAAAAAAAAAAAAAAAAAAAAAAAAAAAAAAAAAAAAAAAAAAAAAAAAAAAAAAAAAAAAAAAAAAAAAAAAAAAAAAAAAAAAAAAAAAAAAAAAAAAAAAAAAAAAAAAAAAAAAAAAAAAAAAAAAAAAAAAAAAAAAAAAAAAAAAAAAAAAAAAAAAAAAAAAAAAAAAAAAAAAAAAAAAAAAAAAAAAAAAAAAAAAAAAAAAAAAAAAAAAAAAAAAAAAAAAAAAAAAAAAAAAAAAAAAAAAAAAAAAAAAAAAAAAAAAAAAAAAAAAAAAAAAAAAAAAAAAAAAAAAAAAAAAAAAAAAAAAAAAAAAAAAAAAAAAAAAAAAAAAAAAAAAAAAAAAAAAAAAAAAAAAAAAAAAAAAAAAAAAAAAAAAAAAAAAAAAAAAAAAAAAAAAAAAAAAAAAAAAAAAAAAAAAAAAAAAAAAAAAAAAAAAAAAAAAAAAAAAAAAAAAAAAAAAAAAAAAAAAAAAAAAAAAAAAAAAAAAAAAAAAAAAAAAAAAAAAAAAAAAAAAAAAAAAAAAAAAAAAAAAAAAAAAAAAAAAAAAAAAAAAAAAAAAAAAAAAAAAAAAAAAAAAAAAAAAAAAAAAAAAAAAAAAAAAAAAAAAAAAAAAAAAAAAAAAAAAAAAAAAAAAAAAAAAAAAAAAAAAAAAAAAAAAAAAAAAAAAAAAAAAAAAAAAAAAAAAAAAAAAAAAAAAAAAAAAAAAAAAAAAAAAAAAAAAAAAAAAAAAAAAAAAAAAAAAAAAAAAAAAAAAAAAAAAAAAAAAAAAAAAAAAAAAAAAAAAAAAAAAAAAAAAAAAAAAAAAAAAAAAAAAAAAAAAAAAAAAAAAAAAAAAAAAAAAAAAAAAAAAAAAAAAAAAAAAAAAAAAAAAAAAAAAAAAAAAAAAAAAAAAAAAAAAAAAAAAAAAAAAAAAAAAAAAAAAAAAAAAAAAAAAAAAAAAAAAAAAAAAAAAAAAAAAAAAAAAAAAAAAAAAAAAAAAAAAAAAAAAAAAAAAAAAAAAAAAAAAAAAAAAAAAAAAAAAAAAAAAAAAAAAAAAAAAAAAAAAAAAAAAAAAAAAAAAAAAAAAAAAAAAAAAAAAAAAAAAAAAAAAAAAAAAAAAAAAAAAAAAAAAAAAAAAAAAAAAAAAAAAAAAAAAAAAAAAAAAAAAAAAAAAAAAAAAAAAAAAAAAAAAAAAAAAAAAAAAAAAAAAAAAAAAAAAAAAAAAAAAAAAAAAAAAAAAAAAAAAAAAAAAAAAAAAAAAAAAAAAAAAAAAAAAAAAAAAAAAAAAAAAAAAAAAAAAAAAAAAAAAAAAAAAAAAAAAAAAAAAAAAAAAAAAAAAAAAAAAAAAAAAAAAAAAAAAAAAAAAAAAAAAAAAAAAAAAAAAAAAAAAAAAAAAAAAAAAAAAAAAAAAAAAAAAAAAAAAAAAAAAAAAAAAAAAAAAAAAAAAAAAAAAAAAAAAAAAAAAAAAAAAAAAAAAAAAAAAAAAAAAAAAAAAAAAAAAAAAAAAAAAAAAAAAAAAAAAAAAAAAAAAAAAAAAAAAAAAAAAAAAAAAAAAAAAAAAAAAAAAAAAAAAAAAAAAAAAAAAAAAAAAAAAAAAAAAAAAAAAAAAAAAAAAAAAAAAAAAAAAAAAAAAAAAAAAAAAAAAAAAAAAAAAAAAAAAAAAAAAAAAAAAAAAAAAAAAAAAAAAAAAAAAAAAAAAAAAAAAAAAAAAAAAAAAAAAAAAAAAAAAAAAAAAAAAAAAAAAAAAAAAAAAAAAAAAAAAAAAAAAAAAAAAAAAAAAAAAAAAAAAAAAAAAAAAAAAAAAAAAAAAAAAAAAAAAAAAAAAAAAAAAAAAAAAAAAAAAAAAAAAAAAAAAAAAAAAAAAAAAAAAAAAAAAAAAAAAAAAAAAAAAAAAAAAAAAAAAAAAAAAAAAAAAAAAAAAAAAAAAAAAAAAAAAAAAAAAAAAAAAAAAAAAAAAAAAAAAAAAAAAAAAAAAAAAAAAAAAAAAAAAAAAAAAAAAAAAAAAAAAAAAAAAAAAAAAAAAAAAAAAAAAAAAAAAAAAAAAAAAAAAAAAAAAAAAAAAAAAAAAAAAAAAAAAAAAAAAAAAAAAAAAAAAAAAAAAAAAAAAAAAAAAAAAAAAAAAAAAAAAAAAAAAAAAAAAAAAAAAAAAAAAAAAAAAAAAAAAAAAAAAAAAAAAAAAAAAAAAAAAAAAAAAAAAAAAAAAAAAAAAAAAAAAAAAAAAAAAAAAAAAAAAAAAAAAAAAAAAAAAAAAAAAAAAAAAAAAAAAAAAAAAAAAAAAAAAAAAAAAAAAAAAAAAAAAAAAAAAAAAAAAAAAAAAAAAAAAAAAAAAAAAAAAAAAAAAAAAAAAAAAAAAAAAAAAAAAAAAAAAAAAAAAAAAAAAAAAAAAAAAAAAAAAAAAAAAAAAAAAAAAAAAAAAAAAAAAAAAAAAAAAAAAAAAAAAAAAAAAAAAAAAAAAAAAAAAAAAAAAAAAAAAAAAAAAAAAAAAAAAAAAAAAAAAAAAAAAAAAAAAAAAAAAAAAAAAAAAAAAAAAAAAAAAAAAAAAAAAAAAAAAAAAAAAAAAAAAAAAAAAAAAAAAAAAAAAAAAAAAAAAAAAAAAAAAAAAAAAAAAAAAAAAAAAAAAAAAAAAAAAAAAAAAAAAAAAAAAAAAAAAAAAAAAAAAAAAAAAAAAAAAAAAAAAAAAAAAAAAAAAAAAAAAAAAAAAAAAAAAAAAAAAAAAAAAAAAAAAAAAAAAAAAAAAAAAAAAAAAAAAAAAAAAAAAAAAAAAAAAAAAAAAAAAAAAAAAAAAAAAAAAAAAAAAAAAAAAAAAAAAAAAAAAAAAAAAAAAAAAAAAAAAAAAAAAAAAAAAAAAAAAAAAAAAAAAAAAAAAAAAAAAAAAAAAAAAAAAAAAAAAAAAAAAAAAAAAAAAAAAAAAAAAAAAAAAAAAAAAAAAAAAAAAAAAAAAAAAAAAAAAAAAAAAAAAAAAAAAAAAAAAAAAAAAAAAAAAAAAAAAAAAAAAAAAAAAAAAAAAAAAAAAAAAAAAAAAAAAAAAAAAAAAAAAAAAAAAAAAAAAAAAAAAAAAAAAAAAAAAAAAAAAAAAAAAAAAAAAAAAAAAAAAAAAAAAAAAAAAAAAAAAAAAAAAAAAAAAAAAAAAAAAAAAAAAAAAAAAAAAAAAAAAAAAAAAAAAAAAAAAAAAAAAAAAAAAAAAAAAAAAAAAAAAAAAAAAAAAAAAAAAAAAAAAAAAAAAAAAAAAAAAAAAAAAAAAAAAAAAAAAAAAAAAAAAAAAAAAAAAAAAAAAAAAAAAAAAAAAAAAAAAAAAAAAAAAAAAAAAAAAAAAAAAAAAAAAAAAAAAAAAAAAAAAAAAAAAAAAAAAAAAAAAAAAAAAAAAAAAAAAAAAAAAAAAAAAAAAAAAAAAAAAAAAAAAAAAAAPZYQDstXPH4fcLv5Iw4Exj6CZTZVFhZBmc4HbfWPwAInHnsD/AxvsQhwXd8jWsOIHK7o+c8Pqed4tMj7BneIynzmFk=</c2pa:manifest></metadata><path fill="#17352B" fill-rule="evenodd" d="M84.3 820.9C63.8 818.3 46.3 810 31.8 796.2C27.4 792 21.8 785.7 19.4 782.3C13.6 774.3 7.4 761 4.7 750.7L2.5 742.5L2.5 412L2.5 81.5L4.7 73.3C7.4 63 13.6 49.7 19.4 41.6C29.5 27.4 47 14 62.8 8.3C79.9 2.1 47.1 2.6 442.5 2.2C705.4 2 805.2 2.2 812.5 3C833.1 5.4 851.2 13.6 865.8 27.4C870.4 31.8 876.2 38.2 878.6 41.6C884.2 49.4 890.4 62.6 893.3 72.7L895.5 80.5L895.8 451.2L896 822L493.3 821.9C271.7 821.8 87.7 821.4 84.3 820.9Z"/><path fill="#F1E7D2" fill-rule="evenodd" d="M91 541.5L91 350L123.5 350L156 350L156 399.5L156 449L190.5 449L225 449L225 399.5L225 350L257.5 350L290 350L290 541.5L290 733L257.5 733L225 733L225 620L225 507L190.5 507L156 507L156 620L156 733L123.5 733L91 733L91 541.5ZM313 541.5L313 350L345.5 350L378 350L378 541.5L378 733L345.5 733L313 733L313 541.5ZM464.7 732.3C464.3 732 464 660.4 464 573.3L464 415L432.5 415L401 415L401 382.5L401 350L497 350L593 350L592.8 382.2L592.5 414.5L560.8 414.8L529 415L529 574L529 733L497.2 733C479.7 733 465 732.7 464.7 732.3ZM688.6 732C678.1 730.3 670.7 728 661.4 723.5C638.3 712.3 622.5 693.3 614.8 667.5C613 661.6 612.7 657 612.3 637.2L611.8 614L644.4 614L677 614L677 628.3C677 645.7 678.2 649.8 685.1 657.4C692 665 697.9 667.4 709.5 667.4C716.5 667.4 719.5 667 723.1 665.3C729.4 662.5 735.6 656.6 738.8 650.6C741.4 645.6 741.5 645 741.8 624.5C742.1 605.2 742 603 740.1 597.9C737.2 590.2 732.1 584.7 724.7 581.1C718.9 578.4 717.5 578.1 703 577.6C685.5 577 675 574.8 663.4 569.5C636.4 557.1 617.7 532.5 613 502.9C612.2 497.9 612 483.8 612.2 459C612.6 422.6 612.6 422.5 615.3 413.7C625.8 379.8 652.7 356.3 687.3 350.9C691.7 350.2 702.2 350 714.5 350.3C736.2 350.8 742.3 351.9 755.5 357.9C781.4 369.7 800.6 394.4 805.5 422.5C806.5 428.6 807 438.1 807 453.6L807 476L774.6 476L742.2 476L741.8 456.8C741.4 434.5 740.6 431.4 732.5 423.6C725.8 417 718.9 414.7 707.5 415.2C699.9 415.5 697.7 416 693.2 418.5C687.3 421.7 683.1 426 679.8 432.3C677.6 436.3 677.5 437.8 677.2 461.3C676.9 482.7 677.1 487 678.6 491.7C680.8 498.7 687.4 506 694.6 509.6C699.6 512.1 701.5 512.3 717.8 513.1C737.5 513.9 745.1 515.6 757 521.5C780.6 533.1 797.1 553 804.2 578.5C806.3 586.1 806.4 588.3 806.5 623L806.5 659.5L803.7 668.5C793.9 700 770.8 722.3 739.8 730.1C733.3 731.7 727.6 732.2 713 732.5C702.8 732.7 691.8 732.5 688.6 732ZM133.5 319C113.5 315 97.7 299.8 92.5 279.5C90.3 270.8 90.3 141.7 92.5 132.2C94.9 122 98.8 115.2 106.6 107.3C119.3 94.4 131.5 90.5 156.5 91.3C169.2 91.6 172.6 92.1 178.6 94.2C195.3 100.1 206.7 111.9 212 128.9C213.9 135 214 138.1 214 215.1L214 295L225.4 295L236.8 295L239.3 299.2C242.8 305.1 248.5 311.5 254.3 316.1L259.2 320L198.3 319.9C164.9 319.8 135.7 319.4 133.5 319ZM280.3 318.6C261.8 314.1 246.3 298.9 241.5 280.5C240.2 275.4 240 262 240 182.8L240 91L259 91L277.9 91L278.2 179.2C278.5 276.4 278.1 270 284.7 276.2C288.5 279.8 292 281 299.2 281C307.2 281 313.2 278.2 316.8 272.7L319.5 268.6L319.8 179.8L320 91L339.3 91.2L358.5 91.5L358.5 183.5L358.5 275.5L356.3 282.5C350.7 300.4 335.8 314.2 317.8 318.5C310 320.3 287.7 320.4 280.3 318.6ZM372.2 205.8L372.5 91.5L391.8 91.2L411 91L411 205.5L411 320L391.5 320L372 320L372.2 205.8ZM425 205.5L425 91L447.9 91L470.7 91L486 136.3C494.4 161.1 503.2 186.7 505.4 193L509.5 204.5L509.8 147.8L510 91L529 91L548 91L548 205.5L548 320L525.2 319.8L502.5 319.5L483.3 263L464.1 206.5L464.1 263.2L464 320L444.5 320L425 320L425 205.5ZM598 225L598 130L579 130L560 130L560 110.5L560 91L617 91L674 91L674 110.5L674 130L655.5 130L637 130L637 225L637 320L617.5 320L598 320L598 225ZM672.6 318.2C672.8 317.3 684 266.3 697.5 205C711 143.7 722.2 92.9 722.5 92.2C722.8 91.3 727.2 91 739.8 91L756.6 91L781.4 203.8C795 265.8 806.4 317.3 806.6 318.2C807.1 319.9 805.7 320 787.2 320L767.3 320L762.6 298.2C759.9 286.3 757.1 273.5 756.3 269.8L754.8 263L739.6 263L724.4 263L719.6 284.8C717 296.7 714.1 309.5 713.3 313.2L711.8 320L692 320C673.6 320 672.2 319.9 672.6 318.2ZM176 214.2C176 171.4 175.6 146.2 175 143.8C172.4 134.7 164.9 130.1 152.7 130C141.3 130 135.7 132.7 131.9 140.3C130 143.9 130 146.6 130.2 206.9L130.5 269.8L133.5 273.6C139 280.3 141.4 281 159.7 281L176 281L176 214.2ZM747 228.2C747 227 739.9 195.6 739.6 195.3C739.4 195.1 737.9 201.6 736.1 209.7C734.3 217.9 732.6 225.5 732.3 226.8C731.8 228.9 732 229 739.4 229C743.6 229 747 228.6 747 228.2Z"/></svg>