<svg xmlns="http://www.w3.org/2000/svg" viewBox="0 0 604 604" xmlns:c2pa="http://c2pa.org/manifest"><metadata><c2pa:manifest>AAAWgmp1bWIAAAAeanVtZGMycGEAEQAQgAAAqgA4m3EDYzJwYQAAABZcanVtYgAAAEdqdW1kYzJtYQARABCAAACqADibcQN1cm46YzJwYTo1MjUzYTNmNC0xOTU4LTQ0MTctOTRhNC01ZTdkMWZmMzYxMzkAAAADl2p1bWIAAAApanVtZGMyYXMAEQAQgAAAqgA4m3EDYzJwYS5hc3NlcnRpb25zAAAAALxqdW1iAAAARGp1bWRjYm9yABEAEIAAAKoAOJtxE2MycGEuaW5ncmVkaWVudC52MwAAAAAYYzJzaA3Iul+J/5ADxRokTQxu8RUAAABwY2JvcqNpZGM6Zm9ybWF0bWltYWdlL3N2Zyt4bWxqaW5zdGFuY2VJRHgseG1wOmlpZDo1YmUwZmJhNS1mMDVkLTRkNTgtOWQwMS03YWI3YjRlN2I3NDVscmVsYXRpb25zaGlwaHBhcmVudE9mAAAB4mp1bWIAAABBanVtZGNib3IAEQAQgAAAqgA4m3ETYzJwYS5hY3Rpb25zLnYyAAAAABhjMnNoRLmeKNbPlgqjU0MS621F3gAAAZljYm9yomdhY3Rpb25zgqJmYWN0aW9ua2MycGEub3BlbmVkanBhcmFtZXRlcnOha2luZ3JlZGllbnRzgaJjdXJseC1zZWxmI2p1bWJmPWMycGEuYXNzZXJ0aW9ucy9jMnBhLmluZ3JlZGllbnQudjNkaGFzaFggXC/lFLxhf6UQC+6kErD2to58gRVmwjht5+hRo6TeaGukZmFjdGlvbngdY29tLmFudGhyb3BpYy5jbGF1ZGUucHJvdmlkZWRqcGFyYW1ldGVyc6F4H2NvbS5hbnRocm9waWMub3JpZ2luLWNvbmZpZGVuY2VndW5rbm93bmtkZXNjcmlwdGlvbnhmQ2xhdWRlIHByb3ZpZGVkIHRoaXMgZmlsZSBhdCB0aGUgcmVxdWVzdCBvZiBhIHVzZXIgYW5kIG1heSBoYXZlIGNyZWF0ZWQgb3IgbW9kaWZpZWQgdGhlIGZpbGUgY29udGVudHMubXNvZnR3YXJlQWdlbnShZG5hbWVmQ2xhdWRlcmFsbEFjdGlvbnNJbmNsdWRlZPUAAADIanVtYgAAAEBqdW1kY2JvcgARABCAAACqADibcRNjMnBhLmhhc2guZGF0YQAAAAAYYzJzaGd4O7nrNoak+GX5Loa8JIwAAACAY2JvcqVjYWxnZnNoYTI1NmNwYWRNAAAAAAAAAAAAAAAAAGRoYXNoWCBrbiT70UUvM2HlOd3fVzPRUVoO7HEr9RXhqFiHICC1gGRuYW1lbmp1bWJmIG1hbmlmZXN0amV4Y2x1c2lvbnOBomVzdGFydBh9Zmxlbmd0aBkeBAAAAj5qdW1iAAAAJ2p1bWRjMmNsABEAEIAAAKoAOJtxA2MycGEuY2xhaW0udjIAAAACD2Nib3KlY2FsZ2ZzaGEyNTZpc2lnbmF0dXJleE1zZWxmI2p1bWJmPS9jMnBhL3VybjpjMnBhOjUyNTNhM2Y0LTE5NTgtNDQxNy05NGE0LTVlN2QxZmYzNjEzOS9jMnBhLnNpZ25hdHVyZWppbnN0YW5jZUlEeCx4bXA6aWlkOjczYTIwMzc0LTQ3OTMtNGNmOC04ZWY0LWM5MjQyN2YyNTk1N3JjcmVhdGVkX2Fzc2VydGlvbnODomN1cmx4LXNlbGYjanVtYmY9YzJwYS5hc3NlcnRpb25zL2MycGEuaW5ncmVkaWVudC52M2RoYXNoWCBcL+UUvGF/pRAL7qQSsPa2jnyBFWbCOG3n6FGjpN5oa6JjdXJseCpzZWxmI2p1bWJmPWMycGEuYXNzZXJ0aW9ucy9jMnBhLmFjdGlvbnMudjJkaGFzaFggR5RqjRA2HeGn8yHK0VDVFV7fuYYzoITEdpljNkdfSg2iY3VybHgpc2VsZiNqdW1iZj1jMnBhLmFzc2VydGlvbnMvYzJwYS5oYXNoLmRhdGFkaGFzaFggY/uOnKnhbRkE/7rHD4JWU8vMvD3l9Sk7GwM2fNN2waR0Y2xhaW1fZ2VuZXJhdG9yX2luZm+jZG5hbWVvQW50aHJvcGljIEZpbGVzZ3ZlcnNpb25lMS4wLjBrc3BlY1ZlcnNpb25lMi40LjAAABA4anVtYgAAAChqdW1kYzJjcwARABCAAACqADibcQNjMnBhLnNpZ25hdHVyZQAAABAIY2JvctKEWQISogEmGCFZAgowggIGMIIBjaADAgECAhRA5aAK7sI50L64g/oGQgU9Z1UTADAKBggqhkjOPQQDAzBJMRcwFQYDVQQKEw5BbnRocm9waWMsIFBCQzEuMCwGA1UEAxMlQW50aHJvcGljIENvbnRlbnQgQ3JlZGVudGlhbHMgUm9vdCBDQTAeFw0yNjA4MDcxODQzNTZaFw0yODA4MDYxOTQzNTZaMEQxFzAVBgNVBAoTDkFudGhyb3BpYywgUEJDMSkwJwYDVQQDEyBBbnRocm9waWMgQ2xhdWRlIENvbnRlbnQgU2lnbmluZzBZMBMGByqGSM49AgEGCCqGSM49AwEHA0IABJh6CmvLUBgFFNU0vUKlOVtE6djd17L5SuwX0LemFisBM3dkd/3cyjxFA3Qo5S46fX0/ihY0VZ7mfb9KF703t5OjWDBWMA4GA1UdDwEB/wQEAwIHgDAVBgNVHSUEDjAMBgorBgEEAYPoXgIBMAwGA1UdEwEB/wQCMAAwHwYDVR0jBBgwFoAUzlHiBIFOZFsj+OPEz5o+nMHXXMIwCgYIKoZIzj0EAwMDZwAwZAIwMXMdFJ4BetLLVY7ORuE9noqbbAZOZn/aArXyTwFAZfKrPzxF2vPoJNf1+UCdg1XGAjBwX1zd9WGqYkqmL5SFqw1QySjr1zJfpJM9+1rdDwSPLMOPOjKuiXjoU/pUUeG9RwmhY3BhZFkNngAAAAAAAAAAAAAAAAAAAAAAAAAAAAAAAAAAAAAAAAAAAAAAAAAAAAAAAAAAAAAAAAAAAAAAAAAAAAAAAAAAAAAAAAAAAAAAAAAAAAAAAAAAAAAAAAAAAAAAAAAAAAAAAAAAAAAAAAAAAAAAAAAAAAAAAAAAAAAAAAAAAAAAAAAAAAAAAAAAAAAAAAAAAAAAAAAAAAAAAAAAAAAAAAAAAAAAAAAAAAAAAAAAAAAAAAAAAAAAAAAAAAAAAAAAAAAAAAAAAAAAAAAAAAAAAAAAAAAAAAAAAAAAAAAAAAAAAAAAAAAAAAAAAAAAAAAAAAAAAAAAAAAAAAAAAAAAAAAAAAAAAAAAAAAAAAAAAAAAAAAAAAAAAAAAAAAAAAAAAAAAAAAAAAAAAAAAAAAAAAAAAAAAAAAAAAAAAAAAAAAAAAAAAAAAAAAAAAAAAAAAAAAAAAAAAAAAAAAAAAAAAAAAAAAAAAAAAAAAAAAAAAAAAAAAAAAAAAAAAAAAAAAAAAAAAAAAAAAAAAAAAAAAAAAAAAAAAAAAAAAAAAAAAAAAAAAAAAAAAAAAAAAAAAAAAAAAAAAAAAAAAAAAAAAAAAAAAAAAAAAAAAAAAAAAAAAAAAAAAAAAAAAAAAAAAAAAAAAAAAAAAAAAAAAAAAAAAAAAAAAAAAAAAAAAAAAAAAAAAAAAAAAAAAAAAAAAAAAAAAAAAAAAAAAAAAAAAAAAAAAAAAAAAAAAAAAAAAAAAAAAAAAAAAAAAAAAAAAAAAAAAAAAAAAAAAAAAAAAAAAAAAAAAAAAAAAAAAAAAAAAAAAAAAAAAAAAAAAAAAAAAAAAAAAAAAAAAAAAAAAAAAAAAAAAAAAAAAAAAAAAAAAAAAAAAAAAAAAAAAAAAAAAAAAAAAAAAAAAAAAAAAAAAAAAAAAAAAAAAAAAAAAAAAAAAAAAAAAAAAAAAAAAAAAAAAAAAAAAAAAAAAAAAAAAAAAAAAAAAAAAAAAAAAAAAAAAAAAAAAAAAAAAAAAAAAAAAAAAAAAAAAAAAAAAAAAAAAAAAAAAAAAAAAAAAAAAAAAAAAAAAAAAAAAAAAAAAAAAAAAAAAAAAAAAAAAAAAAAAAAAAAAAAAAAAAAAAAAAAAAAAAAAAAAAAAAAAAAAAAAAAAAAAAAAAAAAAAAAAAAAAAAAAAAAAAAAAAAAAAAAAAAAAAAAAAAAAAAAAAAAAAAAAAAAAAAAAAAAAAAAAAAAAAAAAAAAAAAAAAAAAAAAAAAAAAAAAAAAAAAAAAAAAAAAAAAAAAAAAAAAAAAAAAAAAAAAAAAAAAAAAAAAAAAAAAAAAAAAAAAAAAAAAAAAAAAAAAAAAAAAAAAAAAAAAAAAAAAAAAAAAAAAAAAAAAAAAAAAAAAAAAAAAAAAAAAAAAAAAAAAAAAAAAAAAAAAAAAAAAAAAAAAAAAAAAAAAAAAAAAAAAAAAAAAAAAAAAAAAAAAAAAAAAAAAAAAAAAAAAAAAAAAAAAAAAAAAAAAAAAAAAAAAAAAAAAAAAAAAAAAAAAAAAAAAAAAAAAAAAAAAAAAAAAAAAAAAAAAAAAAAAAAAAAAAAAAAAAAAAAAAAAAAAAAAAAAAAAAAAAAAAAAAAAAAAAAAAAAAAAAAAAAAAAAAAAAAAAAAAAAAAAAAAAAAAAAAAAAAAAAAAAAAAAAAAAAAAAAAAAAAAAAAAAAAAAAAAAAAAAAAAAAAAAAAAAAAAAAAAAAAAAAAAAAAAAAAAAAAAAAAAAAAAAAAAAAAAAAAAAAAAAAAAAAAAAAAAAAAAAAAAAAAAAAAAAAAAAAAAAAAAAAAAAAAAAAAAAAAAAAAAAAAAAAAAAAAAAAAAAAAAAAAAAAAAAAAAAAAAAAAAAAAAAAAAAAAAAAAAAAAAAAAAAAAAAAAAAAAAAAAAAAAAAAAAAAAAAAAAAAAAAAAAAAAAAAAAAAAAAAAAAAAAAAAAAAAAAAAAAAAAAAAAAAAAAAAAAAAAAAAAAAAAAAAAAAAAAAAAAAAAAAAAAAAAAAAAAAAAAAAAAAAAAAAAAAAAAAAAAAAAAAAAAAAAAAAAAAAAAAAAAAAAAAAAAAAAAAAAAAAAAAAAAAAAAAAAAAAAAAAAAAAAAAAAAAAAAAAAAAAAAAAAAAAAAAAAAAAAAAAAAAAAAAAAAAAAAAAAAAAAAAAAAAAAAAAAAAAAAAAAAAAAAAAAAAAAAAAAAAAAAAAAAAAAAAAAAAAAAAAAAAAAAAAAAAAAAAAAAAAAAAAAAAAAAAAAAAAAAAAAAAAAAAAAAAAAAAAAAAAAAAAAAAAAAAAAAAAAAAAAAAAAAAAAAAAAAAAAAAAAAAAAAAAAAAAAAAAAAAAAAAAAAAAAAAAAAAAAAAAAAAAAAAAAAAAAAAAAAAAAAAAAAAAAAAAAAAAAAAAAAAAAAAAAAAAAAAAAAAAAAAAAAAAAAAAAAAAAAAAAAAAAAAAAAAAAAAAAAAAAAAAAAAAAAAAAAAAAAAAAAAAAAAAAAAAAAAAAAAAAAAAAAAAAAAAAAAAAAAAAAAAAAAAAAAAAAAAAAAAAAAAAAAAAAAAAAAAAAAAAAAAAAAAAAAAAAAAAAAAAAAAAAAAAAAAAAAAAAAAAAAAAAAAAAAAAAAAAAAAAAAAAAAAAAAAAAAAAAAAAAAAAAAAAAAAAAAAAAAAAAAAAAAAAAAAAAAAAAAAAAAAAAAAAAAAAAAAAAAAAAAAAAAAAAAAAAAAAAAAAAAAAAAAAAAAAAAAAAAAAAAAAAAAAAAAAAAAAAAAAAAAAAAAAAAAAAAAAAAAAAAAAAAAAAAAAAAAAAAAAAAAAAAAAAAAAAAAAAAAAAAAAAAAAAAAAAAAAAAAAAAAAAAAAAAAAAAAAAAAAAAAAAAAAAAAAAAAAAAAAAAAAAAAAAAAAAAAAAAAAAAAAAAAAAAAAAAAAAAAAAAAAAAAAAAAAAAAAAAAAAAAAAAAAAAAAAAAAAAAAAAAAAAAAAAAAAAAAAAAAAAAAAAAAAAAAAAAAAAAAAAAAAAAAAAAAAAAAAAAAAAAAAAAAAAAAAAAAAAAAAAAAAAAAAAAAAAAAAAAAAAAAAAAAAAAAAAAAAAAAAAAAAAAAAAAAAAAAAAAAAAAAAAAAAAAAAAAAAAAAAAAAAAAAAAAAAAAAAAAAAAAAAAAAAAAAAAAAAAAAAAAAAAAAAAAAAAAAAAAAAAAAAAAAAAAAAAAAAAAAAAAAAAAAAAAAAAAAAAAAAAAAAAAAAAAAAAAAAAAAAAAAAAAAAAAAAAAAAAAAAAAAAAAAAAAAAAAAAAAAAAAAAAAAAAAAAAAAAAAAAAAAAAAAAAAAAAAAAAAAAAAAAAAAAAAAAAAAAAAAAAAAAAAAAAAAAAAAAAAAAAAAAAAAAAAAAAAAAAAAAAAAAAAAAAAAAAAAAAAAAAAAAAAAAAAAAAAAAAAAAAAAAAAAAAAAAAAAAAAAAAAAAAAAAAAAAAAAAAAAAAAAAAAAAAAAAAAAAAAAAAAAAAAAAAAAAAAAAAAAAAAAAAAAAAAAAAAAAAAAAAAAAAAAAAAAAAAAAAAAAAAAAAAAAAAAAAAAAAAAAAAAAAAAAAAAAAAAAAAAAAAAAAAAAAAAAAAAAAAAAAAAAAAAAAAAAAAAAAAAAAAAAAAAAAAAAAAAAAAAAAAAAAAAAAAAAAAAAAAAAAAAAAAAAAAAAAAAAAAAAAAAAAAAAAAAAAAAAAAAAAAAAAAAAAAAAAAAAAAAAAAAAAAAAAAAAAAAAAAAAAAAAAAAAAAAAAAAAAAAAAAAAAAAAAAAAAAAAAAAAAAAAAAAAAAAAAAAAAAAAAAAAAAAAAAAAAAAAAAAAAAAAAAAAAAAAAAAAAAAAAAAAAAAAAAAAAAAAAAAAAAAAAAAAAAAAAAAAAAAAAAAAAAAAAAAAAAAAAAAAAAAAAAAAAAAAAAAAAAAAAAAAAAAAAAAAAAAAAAAAAAAAAAAAAAAAAAAAAAAAAAAAAAAAAAAAAAAAAAAAAAAAAAAAAAAAAAAAAAAAAAAAAAAAAAAAAAAAAAAAAAAAAAAAAAAAAAAAAAAAAAAAAAAAAAAAAAAAAAAAAAAAAAAAAAAAAAAAAAAAAAAAAAAAAAAAAAAAAAAAAAAAAAAAAAAAAAAAAAAAAAAAAAAAAAAAAAAAAAAAAAAAAAAAAAAAAAAAAAAAAAAAAAAAAAAAAAAAAAAAAAAAAAAAAAAAAAAAAAAAAAAAAAAAAAAAAAAAAAAAAAAAAAAAAAAAAAAAAAAAAAAAAAAAAAAAAAAAAAAAAAAAAAAAAAAAAAAAAAAAAAAAAAAAAAAAAAAAAAAAAAAAAAAAAAAAAAAAAAAAAAAAAAAAAAAAAAAAAAAAAAAAAAAAAAAAAAAAAAAAAAAAAAAAAAAAAAAAAAAAAAAAAAAAAAAAAAAAAAAAAAAAAAAAAAAAAAAAAAAAAAAAAAAAAAAAAAAAAAAAAAAAAAAAAAAAAAAAAAAAAAAAAAAAAAAAAAAAAAAAAAAAAAAAAAAAAAAAAAAAAAAAAAAAAAAAAAAAAAAAAAAAAAAAAAAAAAAAAAAAAAAAAAAAAAAAAAAAAAAAAAAAAAAAAAAAAAAAAAAAAAAAAAAAAAAAAAAAAAAAAAAAAAAAAAAAAAAAAAAAAAAAAAAAAAAAAAAAAAAAAAPZYQNl77Ocgozfip5GNZdfaDP/jIZjFbJ4K7r2NavruBNH7jXs06SfzzKxxQrYeu6gllvZQajp+m7cHrU3gB1pxFIM=</c2pa:manifest></metadata><path fill="#F1E7D2" fill-rule="evenodd" d="M280.8 601C219.2 596.2 163 574.2 115 536.1C102.8 526.5 83 507.2 72.8 495C35.3 450.4 12.1 397 4.4 337.5C2.1 319.8 2.1 284.2 4.4 266.5C12.1 207 35.3 153.6 72.8 109C83 96.8 102.8 77.5 115 67.9C159.1 32.8 209.5 11.8 266.5 4.4C284.2 2.1 319.8 2.1 337.5 4.4C394.5 11.8 445.1 32.9 489 67.8C501.2 77.5 521 96.8 531.2 109C563 146.8 585.6 193.3 595.4 241C599.9 262.9 601.3 277.6 601.3 302C601.3 349.2 592.2 389.7 572.1 431.5C546.5 484.7 506.5 528.7 456 559C420.8 580.2 379.6 594.4 338.3 599.4C322.8 601.3 294.7 602.1 280.8 601Z"/><path fill="#171717" fill-rule="evenodd" d="M320 577.8C319.9 577.1 318 561.9 315.7 544L311.4 511.5L313.9 510.9C315.4 510.5 317.9 510.2 319.7 510.1C323.1 510 322.8 509.3 324.6 522.3L325.3 527.2L330.9 526.5C334 526.1 336.7 525.6 336.9 525.4C337.1 525.2 336.8 521.3 336.2 516.8C335.6 512.2 335.3 508.4 335.5 508.2C335.6 508 338.3 507.6 341.4 507.3C345.4 506.9 347 507.1 347 507.9C347 508.6 348.8 522.8 351 539.5C353.2 556.2 355 571 355 572.3C355 574.5 354.5 574.8 349.8 575.3C347 575.7 344.5 575.8 344.3 575.6C344.1 575.5 342.8 566.6 341.4 555.9C340 545.2 338.7 536.4 338.5 536.2C338.4 536.1 335.7 536.2 332.6 536.6C325.9 537.4 326.1 535.6 329.4 559.5C330.7 568.9 331.5 576.8 331.1 577.1C330.8 577.5 328.1 578.1 325.2 578.5C321.2 579 320 578.9 320 577.8ZM252.7 575.4C250 574.7 247.6 573.9 247.3 573.6C247 573.3 248.3 566.6 250.3 558.8C252.3 551 253.7 544.4 253.5 544.2C253.4 544 251.5 546.6 249.4 550C246.8 554.2 245.2 555.9 244.1 555.6C243.2 555.3 240.4 554.6 237.8 553.9L233 552.8L232.9 548.1C232.6 536.4 231.6 537.1 228 551.8C226.1 559.6 224.3 566.5 224 567C223.2 568.2 213 566.1 213 564.8C213 564.4 216.7 549.3 221.1 531.4L229.3 498.9L231.9 499.5C233.3 499.8 236.1 500.5 238.1 501.1L241.7 502L242.9 518.2C243.6 527.2 244.3 534.6 244.4 534.7C244.5 534.8 248.4 528.8 253 521.4C257.6 514 261.7 507.7 262 507.5C262.7 507.1 272.9 509.6 273.7 510.4C274.2 510.9 259.6 572.1 258.2 575.1C257.6 576.5 256.9 576.5 252.7 575.4ZM366.1 537.8C361.1 520.6 356.7 505.8 356.4 504.9C356.1 503.7 357.3 503 361.5 501.8L367 500.3L369.5 508.4C370.9 512.8 375.3 527.6 379.3 541.3L386.7 566L381.7 567.5C378.9 568.3 376.4 569 376 569C375.7 569 371.2 554.9 366.1 537.8ZM178.8 550.4L166.1 544L181 513.8C189.2 497.2 196.3 483.4 196.8 483.2C197.8 482.9 222 494.6 222 495.5C222 496.8 217.5 505 216.8 505C216.3 505 212.8 503.4 209 501.5L202.1 498L200.6 500.8L199.1 503.6L205.6 506.8L212 510L209.9 514.3C208.7 516.6 207.6 518.6 207.5 518.8C207.3 519 204.4 517.7 201 516C197.6 514.3 194.7 513 194.5 513.2C194 513.8 182 538 182 538.5C182 538.8 185.4 540.6 189.5 542.6L196.9 546.2L194.4 551.3C192.9 554.2 191.7 556.6 191.6 556.6C191.6 556.7 185.8 553.9 178.8 550.4ZM410.2 541.8C407 535 401.5 523.6 398 516.3L391.7 503.1L386.9 505.5C384.2 506.9 381.9 508 381.7 508C381 508 376.7 498 377.1 497.5C378 496.7 407.2 482.9 407.5 483.2C408.3 484.1 412 492 412 492.8C412 493.3 409.8 494.7 407.1 495.9L402.3 498.2L414.6 523.9L426.8 549.5L422.7 551.7C420.4 552.9 417.9 553.9 417.3 554C416.6 554 413.4 548.5 410.2 541.8ZM452.5 525.1C450.3 524.1 447.2 521.7 445.8 519.7L443 516.2L447.7 512.7C452.3 509.3 452.5 509.2 453.8 511.2C457.5 516.4 464.9 514.5 465 508.3C465 505.7 459.5 499 457.3 499C456.5 499 453.8 500.2 451.3 501.7C445.8 504.9 439 505.3 434.5 502.6C432.8 501.6 429.3 497.9 426.6 494.4C422.4 488.9 421.6 487.1 421.3 482.7C420.8 476 423.1 471.7 429.5 467.3C437.7 461.6 446.5 463.1 452.9 471.3L455.9 475.2L453.2 477.4C446.5 482.7 447.2 482.6 444 479.2C440.7 475.5 437.8 475.2 435 478C432.2 480.8 432.5 482.9 436.1 487.8C439.8 492.8 441.9 493.1 448.7 489.4C452.5 487.4 454.5 486.9 458.2 487.3C464.3 487.8 467.1 489.8 472.6 497.3C477.1 503.3 477.2 503.6 476.8 509.7C476.5 515.2 476 516.4 473 519.6C469.1 523.6 462.8 527 459 527C457.6 527 454.7 526.1 452.5 525.1ZM133.7 522.3L129 518.8L138.3 506.7C143.5 500 151.2 489.8 155.6 484.2L163.5 473.8L159.2 470.2L154.9 466.5L158.1 462.2C159.9 459.7 161.8 458.1 162.6 458.4C163.3 458.7 169.5 463.2 176.5 468.5L189 478.2L185.8 482.3C184.1 484.6 182.5 486.7 182.3 486.9C182.1 487.1 179.9 485.9 177.4 484C174.9 482.2 172.5 481.2 172.1 481.6C171.7 482.1 165.5 490.1 158.5 499.5C151.4 508.9 144 518.6 142 521.1L138.4 525.7L133.7 522.3ZM284.5 486.9C229.3 481.6 178.7 451.4 147.5 405C135.1 386.5 124.5 361 120 338.8C107.4 276.3 128 211.2 174.3 167.3C246.1 99.4 357.9 99.4 429.7 167.3C457.1 193.3 476.5 228.2 484 265.2C496.6 327.7 476 392.8 429.7 436.7C390.7 473.6 337.6 491.9 284.5 486.9ZM331.9 476.6C401.6 463.6 455.5 414.3 473 347.5C477.7 329.4 478.5 322.9 478.5 302C478.5 281.1 477.7 274.6 473 256.5C457 195.3 408.7 147 347.5 131C329.4 126.3 322.9 125.5 302 125.5C281.1 125.5 274.6 126.3 256.5 131C195.3 147 147 195.3 131 256.5C126.3 274.6 125.5 281.1 125.5 302C125.5 322.9 126.3 329.4 131 347.5C147 408.7 195.2 456.9 256.5 473C262.6 474.6 270.9 476.4 275 476.9C279.1 477.5 283.6 478.2 285 478.4C290.6 479.4 323.9 478.1 331.9 476.6ZM266.6 395.9C253.1 391.3 243.2 381.1 238.4 367C236.6 361.9 236.5 357.7 236.5 302C236.5 246.3 236.6 242.1 238.4 237C243.3 222.8 253.2 212.6 266.8 208.1C275.8 205 301.2 205 310.2 208.1C323.4 212.5 333.1 222.1 338.3 235.9C340.4 241.4 340.5 243 340.8 309.2L341.1 377L360 377L379 377L379 387.5L379 398L325.8 398C274.8 397.9 272.2 397.8 266.6 395.9ZM308 308.7L308 251.4L305.8 247C302.5 240.5 298.4 238.5 288.5 238.5C278.6 238.5 274.5 240.5 271.2 247C269 251.4 269 251.5 269 302C269 348.7 269.2 352.8 270.9 356.5C274.4 364.2 278.9 365.9 295.8 366L308 366L308 308.7ZM54.5 306L50.6 302L54.8 297.7L59 293.5L63.2 297.7L67.4 302L63.5 306C61.4 308.2 59.3 310 59 310C58.7 310 56.6 308.2 54.5 306ZM540.5 306L536.6 302L540.8 297.7L545 293.5L549.2 297.7L553.4 302L549.5 306C547.4 308.2 545.3 310 545 310C544.7 310 542.6 308.2 540.5 306ZM475.5 185.4C471.4 180.4 471.1 181.6 478.8 172.3L483.2 167.1L480.4 163.6C477.3 159.7 477.7 159.7 466.7 165.1L461.9 167.5L458.5 163.5C456.6 161.3 455.2 159.1 455.4 158.5C455.6 157.7 504.2 133.9 514.7 129.5C517.9 128.2 518 128.2 521.1 132.1L524.2 136L501.7 163L479.2 190L475.5 185.4ZM118.1 182.8C114.5 181.8 109 178.2 109 176.8C109 176.3 110.4 174.1 112.2 171.9C115.2 168.2 115.5 168.1 117.6 169.5C120.9 171.7 124.6 171.4 126.4 168.8C128.8 165.4 128.3 163.4 124.3 160.1C119.3 156 116.9 156.2 112.2 160.9C107.2 165.9 101.5 167.8 96 166.1C90.8 164.6 80.2 155.7 78.4 151.4C75.5 144.5 77.7 137.1 84.4 131.2C90.7 125.7 98 125.7 105.5 131.1L109.9 134.2L106.7 138.6C104.9 141 103.1 142.9 102.7 143C102.3 143 100.6 142 99 140.9C97.1 139.4 95.4 138.9 93.8 139.3C90.8 140.1 88.6 144 89.4 146.8C90.1 148.7 98.3 155 100.2 155C100.7 155 103.4 152.9 106.2 150.2C111.2 145.6 111.3 145.5 117.9 145.5C124.3 145.5 125 145.7 130.3 149.8C137.9 155.5 139.5 158.1 139.5 165.1C139.5 169.9 139 171.5 136.4 175.2C131.4 182 125 184.7 118.1 182.8ZM494.7 152.4C494.4 152.1 492.7 152.7 490.7 153.6C487.6 155.1 487.3 155.5 488.3 157.2C489.4 159 489.7 158.9 492.3 155.9C493.9 154.2 494.9 152.6 494.7 152.4ZM129.6 130.3C107.6 105.7 106.8 104.7 108.6 103.1C109.7 102.1 114.5 97.8 119.4 93.4L128.3 85.5L132.1 89.9L136 94.3L129.7 100L123.5 105.8L125.6 108L127.7 110.1L132.9 105.4L138.2 100.6L141.5 104.6L144.9 108.5L139.8 113.1C135.9 116.5 134.9 118 135.6 119.2C137 121.5 152.4 138.8 153.2 138.9C153.6 139 156.7 136.6 160 133.6L166.1 128.2L170 132.3L174 136.5L168.8 141.3C165.9 143.9 161 148.3 157.9 151L152.3 155.9L129.6 130.3ZM435.2 141.5L431.1 137.9L449.1 116.2L467.2 94.5L463 90.8L458.8 87.1L462.5 82.5L466.2 78L472.4 83.1C475.7 86 481.5 90.8 485.2 93.8C489 96.9 492 99.7 492 100.1C492 100.5 490.5 102.6 488.6 104.9L485.2 109L481 105.5C478.7 103.6 476.7 102 476.5 102C476.3 102 468.2 111.6 458.5 123.2C448.7 134.9 440.5 144.6 440.1 144.8C439.7 144.9 437.5 143.4 435.2 141.5ZM409.2 122.8C406.1 121.1 404 119.2 404 118.2C404 117.3 405.1 109.8 406.5 101.5C407.8 93.3 408.7 86.4 408.6 86.2C408.4 86 405 92.1 401 99.7C397 107.3 393.7 113.6 393.5 113.8C392.9 114.4 382.9 108.9 383.3 108.2C383.6 107.8 390.6 94.5 399 78.5C407.4 62.5 414.5 49.3 414.7 49.1C415.2 48.4 427 54.2 427 55.1C427 55.6 425.9 63 424.5 71.6C423.1 80.2 422.1 87.4 422.3 87.7C422.5 87.9 426 81.8 430.1 74.1L437.4 60.2L442.2 62.6C444.8 63.9 447 65.5 447 66C447 67.5 415.9 126 415.2 125.9C414.8 125.8 412.1 124.4 409.2 122.8ZM196 92.3C190.4 79.2 184.3 65.1 182.4 60.8L179.1 53.2L191 48.1C197.5 45.3 203.5 42.7 204.3 42.4C205.3 42.1 206.4 43.5 207.9 47C209.1 49.9 210 52.4 209.8 52.5C209.6 52.7 206.3 54.2 202.5 55.9C195.3 58.9 194 60.4 196.2 63.2C197.4 64.7 198 64.6 203.8 62L210.1 59.1L212.1 63.6C213.1 66.1 214 68.3 214 68.5C214 68.6 211.1 70 207.5 71.5C203.9 73.1 201.1 74.6 201.2 75C201.4 75.3 203.9 81.2 206.9 88.2L212.3 100.8L220.2 97.4L228.1 94L229.7 97.8C230.5 99.8 231.6 102.2 232.1 103.1C232.8 104.4 230.8 105.6 220.7 110C214 112.9 208 115.4 207.4 115.7C206.8 115.9 201.9 106 196 92.3ZM368 104.3C365.5 103.4 363.3 102.6 363.1 102.4C362.3 101.7 384.3 38 385.4 38C387.2 38 393.3 40.1 394.4 41C395.3 41.9 374.3 106.1 373.2 105.9C372.8 105.9 370.5 105.1 368 104.3ZM335 96.1C327.2 94.5 321 88 321 81.4C321 79.8 322.9 66.6 325.2 52.2L329.4 25.8L335 26.5C338 26.9 340.6 27.3 340.8 27.4C340.9 27.6 339.2 38.9 337 52.6C334.7 66.3 333 78.6 333.2 80C333.4 81.4 334.6 83.1 336.2 84C338.7 85.3 339.3 85.3 341.8 84C344.4 82.5 344.6 81.7 347.7 63.2C349.4 52.6 351.4 40.7 352 36.8L353.2 29.8L358.3 30.4C361.1 30.8 363.7 31.3 364 31.5C364.4 31.8 362.6 44.3 360.1 59.4C355.3 88.1 354.7 90 348.9 94.2C346 96.3 339.9 97.1 335 96.1ZM278 92.9C274.3 91.4 270.2 87.1 269.1 83.6C268.6 81.9 267.6 71 266.9 59.4C265.8 38.9 265.8 38.3 267.8 34.3C270.5 29.1 273.8 27.1 281.6 25.8C289.6 24.4 295.7 26.4 299.6 31.6C302.7 35.6 302.8 36.6 304.3 63.5L305.5 84.5L312.2 84.8C318.7 85.1 318.9 85.2 319.5 88.1C319.9 89.8 320 91.3 319.8 91.5C319.3 92 291 94 285 93.9C282.5 93.9 279.4 93.4 278 92.9ZM293.6 78.2C293.3 76.2 292.8 68.4 292.5 61C291.8 44.3 291.2 40.4 289.3 38.5C287.2 36.3 281.7 36.6 279.5 39C277.8 40.9 277.8 42.2 278.7 60C279.4 72.1 280.2 79.6 281 80.5C281.8 81.5 284.2 82 288.2 82L294.2 82L293.6 78.2ZM184.4 44.2C184.7 43.3 185.4 40.3 186.1 37.7C187.1 33.6 187.8 32.6 191.3 30.9C194.2 29.4 195.1 29.2 194.7 30.2C194.5 31 193.4 34.3 192.5 37.7C191.2 42.3 190.2 44 188.4 44.9C184.9 46.5 183.8 46.3 184.4 44.2Z"/></svg>